<svg xmlns="http://www.w3.org/2000/svg" xmlns:xlink="http://www.w3.org/1999/xlink" width="1024" zoomAndPan="magnify" viewBox="0 0 768 767.999994" height="1024" preserveAspectRatio="xMidYMid meet" version="1.0"><defs><clipPath id="cbb2c9190a"><path d="M 171.679688 320 L 596.179688 320 L 596.179688 722.769531 L 171.679688 722.769531 Z M 171.679688 320 " clip-rule="nonzero"/></clipPath><clipPath id="d9416f7dea"><path d="M 395.160156 722.585938 L 235.261719 722.585938 C 200.089844 722.585938 171.679688 694.15625 171.679688 658.960938 L 171.679688 384.144531 C 171.679688 348.945312 200.089844 320.515625 235.261719 320.515625 L 395.292969 320.515625 C 506.085938 320.515625 596.179688 410.679688 596.179688 521.550781 C 596.179688 632.425781 505.949219 722.585938 395.160156 722.585938 Z M 298.839844 595.332031 L 395.292969 595.332031 C 436.011719 595.332031 469.019531 562.164062 469.019531 521.550781 C 469.019531 480.804688 435.875 447.769531 395.292969 447.769531 L 298.839844 447.769531 Z M 298.839844 595.332031 " clip-rule="nonzero"/></clipPath><clipPath id="1365408ab3"><path d="M 171.679688 45.519531 L 596.179688 45.519531 L 596.179688 448 L 171.679688 448 Z M 171.679688 45.519531 " clip-rule="nonzero"/></clipPath><clipPath id="2aafd7e07e"><path d="M 395.160156 447.769531 L 235.261719 447.769531 C 200.089844 447.769531 171.679688 419.34375 171.679688 384.144531 L 171.679688 109.328125 C 171.679688 74.132812 200.089844 45.703125 235.261719 45.703125 L 395.292969 45.703125 C 506.085938 45.703125 596.179688 135.863281 596.179688 246.738281 C 596.179688 357.609375 505.949219 447.769531 395.160156 447.769531 Z M 298.839844 320.515625 L 395.292969 320.515625 C 436.011719 320.515625 469.019531 287.351562 469.019531 246.738281 C 469.019531 206.125 435.875 172.957031 395.160156 172.957031 L 298.839844 172.957031 Z M 298.839844 320.515625 " clip-rule="nonzero"/></clipPath><clipPath id="725f742b5c"><path d="M 171.679688 45.519531 L 299 45.519531 L 299 722.769531 L 171.679688 722.769531 Z M 171.679688 45.519531 " clip-rule="nonzero"/></clipPath><clipPath id="d973924ee8"><path d="M 235.261719 722.585938 C 200.089844 722.585938 171.679688 694.15625 171.679688 658.960938 L 171.679688 109.328125 C 171.679688 74.132812 200.089844 45.703125 235.261719 45.703125 C 270.433594 45.703125 298.839844 74.132812 298.839844 109.328125 L 298.839844 658.960938 C 298.839844 694.15625 270.296875 722.585938 235.261719 722.585938 Z M 235.261719 722.585938 " clip-rule="nonzero"/></clipPath></defs><g clip-path="url(#cbb2c9190a)"><g clip-path="url(#d9416f7dea)"><path fill="#292526" d="M 171.679688 320.515625 L 171.679688 722.585938 L 596.179688 722.585938 L 596.179688 320.515625 Z M 171.679688 320.515625 " fill-opacity="1" fill-rule="nonzero"/></g></g><g clip-path="url(#1365408ab3)"><g clip-path="url(#2aafd7e07e)"><path fill="#292526" d="M 171.679688 45.703125 L 171.679688 447.769531 L 596.179688 447.769531 L 596.179688 45.703125 Z M 171.679688 45.703125 " fill-opacity="1" fill-rule="nonzero"/></g></g><g clip-path="url(#725f742b5c)"><g clip-path="url(#d973924ee8)"><path fill="#292526" d="M 171.679688 45.703125 L 171.679688 722.585938 L 298.839844 722.585938 L 298.839844 45.703125 Z M 171.679688 45.703125 " fill-opacity="1" fill-rule="nonzero"/></g></g></svg>